<svg width="22" height="22" viewBox="0 0 22 22" fill="none" xmlns="http://www.w3.org/2000/svg">
<g clip-path="url(#clip0_155_332)">
<path d="M9.61546 11.2641L10.2975 15.6188C10.3225 15.7823 10.2768 15.9547 10.1571 16.0889C9.94062 16.3314 9.5631 16.3572 9.31493 16.1456L0.203857 8.389L0.136536 8.32063C-0.0733433 8.07294 -0.0377026 7.70485 0.215736 7.50016L9.32682 0.13228C9.45838 0.0286465 9.63306 -0.0220966 9.81214 0.00886536C10.1351 0.0656281 10.3503 0.368359 10.2922 0.683559L9.61282 4.37438C10.4039 4.46425 11.2668 4.6569 12.1547 4.94888C14.4717 5.70958 16.9929 7.15959 18.9008 9.26322C20.8275 11.3875 22.1326 14.1744 21.9887 17.5887C21.9372 18.8323 21.6917 20.1577 21.213 21.5599C21.154 21.787 20.9569 21.9663 20.7048 21.9955C20.3774 22.0334 20.0804 21.8046 20.0421 21.4851C19.5172 17.1815 17.8188 14.6861 15.7191 13.2374C13.8425 11.9422 11.6188 11.4593 9.61546 11.2641Z" fill="#B3B3B3"/>
</g>
<defs>
<clipPath id="clip0_155_332">
<rect width="22" height="22" fill="white" transform="translate(22 22) rotate(-180)"/>
</clipPath>
</defs>
</svg>
