<svg width="43" height="34" viewBox="0 0 43 34" fill="none" xmlns="http://www.w3.org/2000/svg">
<path d="M1.93691 5.43863H36.3081C36.8425 5.43863 37.3198 5.65693 37.6669 6.00584C38.0134 6.35476 38.2307 6.84943 38.2307 7.37263V32.0657C38.2307 32.6036 38.0134 33.0835 37.6669 33.4328C37.6383 33.4617 37.6089 33.4909 37.5658 33.5198C37.233 33.8254 36.7855 33.9996 36.2938 33.9996H1.92256C1.38785 33.9996 0.910538 33.7817 0.56375 33.4328C0.216961 33.0839 0 32.5896 0 32.066V7.37298C0 6.835 0.216961 6.35511 0.56375 6.00619C0.910538 5.65728 1.4022 5.43899 1.92256 5.43899H1.93691V5.43863ZM9.87454 12.143C11.3982 12.143 12.6328 13.3852 12.6328 14.9181C12.6328 16.4511 11.3982 17.6936 9.87454 17.6936C8.35091 17.6936 7.11633 16.4511 7.11633 14.9181C7.11598 13.3855 8.35091 12.143 9.87454 12.143ZM21.4823 24.0529L26.9994 14.4558L32.8602 29.3712L5.50732 29.3708V27.521L7.80641 27.4058L10.1045 21.7397L11.2529 25.7873H14.7016L17.689 18.0401L21.4823 24.0529ZM7.66049 2.29734C7.02465 2.29734 6.51864 1.77415 6.51864 1.1485C6.51864 0.508761 7.039 0 7.66049 0H41.8585C42.494 0 43 0.523548 43 1.14885V25.4056C43 26.0457 42.48 26.5548 41.8585 26.5548C41.2223 26.5548 40.7163 26.0313 40.7163 25.4056V2.31213H7.66049V2.29734ZM35.9467 7.73668H2.29804V31.6879H35.9463V7.73668H35.9467Z" fill="#B3B3B3"/>
</svg>
