<svg width="21" height="19" viewBox="0 0 21 19" fill="none" xmlns="http://www.w3.org/2000/svg">
<path d="M14.7075 0C13.7695 0.0148624 12.8519 0.281596 12.0475 0.773264C11.2431 1.26493 10.5803 1.96412 10.126 2.80023C9.67169 1.96412 9.00887 1.26493 8.20445 0.773264C7.40003 0.281596 6.48249 0.0148624 5.54449 0C4.04921 0.0661794 2.64042 0.732519 1.62589 1.85344C0.611365 2.97436 0.0735732 4.45875 0.130009 5.98231C0.130009 11.7313 9.25633 18.3712 9.6445 18.6529L10.126 19L10.6075 18.6529C10.9956 18.3729 20.1219 11.7313 20.1219 5.98231C20.1784 4.45875 19.6406 2.97436 18.6261 1.85344C17.6115 0.732519 16.2027 0.0661794 14.7075 0ZM10.126 16.9109C7.41624 14.8489 1.796 9.78299 1.796 5.98231C1.73906 4.90865 2.10119 3.85561 2.8034 3.05285C3.50561 2.25009 4.49095 1.76275 5.54449 1.69711C6.59804 1.76275 7.58337 2.25009 8.28558 3.05285C8.9878 3.85561 9.40199 4.90865 9.34504 5.98231H10.959C10.902 4.90865 11.2642 3.85561 11.9664 3.05285C12.6686 2.25009 13.6539 1.76275 14.7075 1.69711C15.761 1.76275 16.7463 2.25009 17.4486 3.05285C18.1508 3.85561 18.5129 4.90865 18.4559 5.98231C18.4559 9.78469 12.8357 14.8489 10.126 16.9109Z" fill="black"/>
</svg>
