<svg width="24" height="24" viewBox="0 0 24 24" fill="none" xmlns="http://www.w3.org/2000/svg">
<path d="M10.2654 20.9789L10.5624 21.0359V20.7334V19.6234V19.4226L10.3664 19.3793C8.93152 19.0622 7.64885 18.3395 6.64678 17.3375C5.64288 16.3337 4.92029 15.0512 4.60496 13.6167L4.5618 13.4204H4.36079H3.24888H2.94614L3.00339 13.7177C3.35686 15.553 4.25345 17.1912 5.52332 18.461L5.52345 18.4611C6.79313 19.7288 8.43139 20.6273 10.2654 20.9789ZM3.00336 10.2485L2.94638 10.5456H3.24888H4.36079H4.56204L4.60502 10.349C4.91853 8.91493 5.64269 7.63424 6.64499 6.63203C7.64889 5.62821 8.93149 4.90568 10.3661 4.59036L10.5624 4.54721V4.34619V3.23258V2.93015L10.2654 2.98705C8.42963 3.33871 6.79128 4.23716 5.52153 5.50681L5.5214 5.50694C4.25356 6.77651 3.35505 8.41465 3.00336 10.2485ZM13.7346 2.98526L13.4376 2.92836V3.23079V4.34261V4.54363L13.6339 4.58678C15.0685 4.9021 16.3511 5.62462 17.3531 6.62829L17.3534 6.6286C18.3571 7.63046 19.0797 8.91464 19.395 10.3492L19.4382 10.5456H19.6392H20.7511H21.0533L20.9967 10.2487C20.6468 8.41474 19.7464 6.77289 18.4785 5.50502C17.2087 4.23537 15.5704 3.33692 13.7346 2.98526ZM20.9984 13.7175L21.0554 13.4204H20.7529H19.641H19.4399L19.3968 13.6169C18.7678 16.4862 16.5021 18.7484 13.6339 19.3792L13.4376 19.4224V19.6234V20.7352V21.0376L13.7346 20.9807C15.5704 20.6291 17.2087 19.7306 18.4785 18.461C19.7483 17.1913 20.6467 15.5513 20.9984 13.7175ZM17.4501 12C17.4501 12.4389 17.8055 12.7943 18.2444 12.7943H22.4557C22.8945 12.7943 23.25 12.4389 23.25 12C23.25 11.5611 22.8945 11.2057 22.4557 11.2057H18.2444C17.8055 11.2057 17.4501 11.5611 17.4501 12ZM12.0009 6.55127C12.4398 6.55127 12.7952 6.19587 12.7952 5.757V1.54427C12.7952 1.1054 12.4398 0.75 12.0009 0.75C11.562 0.75 11.2066 1.1054 11.2066 1.54427V5.757C11.2066 6.19587 11.562 6.55127 12.0009 6.55127ZM12.0009 23.25C12.4398 23.25 12.7952 22.8946 12.7952 22.4557V18.243C12.7952 17.995 12.6983 17.7911 12.54 17.6522C12.3864 17.5176 12.1893 17.4559 12.0009 17.4559C11.8124 17.4559 11.6154 17.5176 11.4618 17.6522C11.3035 17.7911 11.2066 17.995 11.2066 18.243V22.4557C11.2066 22.8946 11.562 23.25 12.0009 23.25ZM0.75 12C0.75 12.4389 1.10546 12.7943 1.54432 12.7943H5.7556C6.19445 12.7943 6.54991 12.4389 6.54991 12C6.54991 11.5611 6.19445 11.2057 5.7556 11.2057H1.54432C1.10546 11.2057 0.75 11.5611 0.75 12Z" fill="#B3B3B3" stroke="#B3B3B3" stroke-width="0.5"/>
<path d="M7.40283 11.9976V12.0001C7.40283 14.5389 9.46046 16.5961 11.9991 16.5961C14.5377 16.5961 16.5953 14.5389 16.5953 12.0001C16.5953 9.46038 14.535 7.40405 11.9991 7.40405C9.46087 7.40405 7.406 9.46211 7.40283 11.9976Z" fill="#B3B3B3" stroke="#B3B3B3" stroke-width="4"/>
</svg>
