<svg width="22" height="22" viewBox="0 0 22 22" fill="none" xmlns="http://www.w3.org/2000/svg">
<g clip-path="url(#clip0_154_330)">
<path d="M11.7023 15.6188L12.3843 11.2641C10.3809 11.4593 8.15763 11.9422 6.28059 13.2374C4.18091 14.6861 2.48295 17.1815 1.95759 21.4851C1.91931 21.8046 1.62231 22.0334 1.29495 21.9955C1.04283 21.9663 0.845707 21.787 0.786747 21.5599C0.308466 20.1577 0.0625057 18.8324 0.0110264 17.5887C-0.132854 14.1744 1.17219 11.3875 3.09895 9.26323C5.00679 7.1596 7.52799 5.70959 9.84503 4.94889C10.733 4.65691 11.5962 4.46426 12.3869 4.37439L11.7075 0.683571C11.6499 0.36837 11.8646 0.0656395 12.1876 0.0088768C12.3667 -0.0220852 12.5414 0.0286579 12.6716 0.133581L21.784 7.50017C22.0374 7.70485 22.0731 8.07295 21.8632 8.32064L21.7954 8.38858L12.6848 16.1456C12.4366 16.3572 12.0591 16.3314 11.8426 16.0889C11.7229 15.9547 11.6776 15.7823 11.7023 15.6188Z" fill="#B3B3B3"/>
</g>
<defs>
<clipPath id="clip0_154_330">
<rect width="22" height="22" fill="white" transform="translate(22 22) rotate(-180)"/>
</clipPath>
</defs>
</svg>
