<svg width="21" height="22" viewBox="0 0 21 22" fill="none" xmlns="http://www.w3.org/2000/svg">
<path d="M10.5046 0C15.0359 0 18.5 3.79407 18.5 8.58146L18.4954 10.4081C18.4958 10.7154 18.6946 11.0707 19.2335 11.705C19.3012 11.7847 19.3649 11.8585 19.5043 12.0195C20.5744 13.2577 21 13.9745 21 15.0882C21 15.5893 20.943 15.9785 20.7056 16.4456C20.1996 17.4409 19.1182 18 17.5 18L14.8989 18.0007C14.231 20.2645 12.7123 21.5 10.5 21.5C8.28768 21.5 6.76905 20.2645 6.10115 18.0007L3.5 18C1.83483 18 0.74203 17.4258 0.257975 16.3962C0.04802 15.9497 0 15.5875 0 15.0882C0 13.975 0.424754 13.2582 1.49283 12.0202C1.63191 11.8592 1.69552 11.7854 1.76308 11.7057C2.30171 11.0706 2.5 10.7151 2.5 10.4071V8.57895C2.5 3.79571 5.97202 0 10.5046 0ZM12.7794 18.0008H8.2206C8.67139 19.0432 9.39866 19.5 10.5 19.5C11.6013 19.5 12.3286 19.0432 12.7794 18.0008ZM10.5046 2C7.11835 2 4.5 4.86245 4.5 8.57895V10.4071C4.5 11.3348 4.1156 12.0239 3.28841 12.9993C3.21509 13.0857 3.14587 13.1661 3.00717 13.3266C2.24712 14.2076 2 14.6246 2 15.0882C2 15.3144 2.01597 15.4348 2.06791 15.5453C2.19184 15.8089 2.55558 16 3.5 16H17.5C18.4142 16 18.7863 15.8076 18.9228 15.5392C18.9818 15.423 19 15.2989 19 15.0882C19 14.6251 18.7524 14.2081 17.9911 13.3273C17.8522 13.1668 17.7828 13.0864 17.7094 13C16.8806 12.0245 16.4954 11.3353 16.4954 10.4071L16.5 8.57895C16.5 4.86008 13.8886 2 10.5046 2Z" fill="black"/>
</svg>
