<svg width="17" height="20" viewBox="0 0 17 20" fill="none" xmlns="http://www.w3.org/2000/svg">
<path d="M16.126 20H14.3482V15.7975C14.3475 15.1441 14.0703 14.5177 13.5776 14.0558C13.0848 13.5938 12.4166 13.334 11.7198 13.3333H4.5322C3.83531 13.334 3.16716 13.5938 2.67439 14.0558C2.18161 14.5177 1.90446 15.1441 1.90375 15.7975V20H0.125977V15.7975C0.127388 14.7023 0.592067 13.6524 1.41809 12.878C2.24411 12.1036 3.36403 11.6679 4.5322 11.6666H11.7198C12.8879 11.6679 14.0078 12.1036 14.8339 12.878C15.6599 13.6524 16.1246 14.7023 16.126 15.7975V20Z" fill="black"/>
<path d="M8.1263 10C7.07147 10 6.04032 9.70676 5.16326 9.15735C4.2862 8.60794 3.60261 7.82705 3.19895 6.91342C2.79528 5.99979 2.68966 4.99446 2.89545 4.02455C3.10124 3.05465 3.60919 2.16373 4.35507 1.46447C5.10095 0.765206 6.05126 0.289002 7.08582 0.0960758C8.12039 -0.0968503 9.19274 0.00216643 10.1673 0.380605C11.1418 0.759043 11.9748 1.39991 12.5608 2.22215C13.1468 3.0444 13.4596 4.0111 13.4596 5C13.4582 6.32568 12.8959 7.59668 11.896 8.53407C10.8961 9.47147 9.54036 9.99868 8.1263 10ZM8.1263 1.66667C7.42308 1.66667 6.73565 1.86217 6.15094 2.22844C5.56624 2.59471 5.11051 3.1153 4.8414 3.72439C4.57229 4.33348 4.50188 5.0037 4.63907 5.6503C4.77626 6.29691 5.11489 6.89085 5.61215 7.35703C6.1094 7.8232 6.74294 8.14067 7.43265 8.26929C8.12236 8.3979 8.83726 8.33189 9.48696 8.0796C10.1366 7.82731 10.6919 7.40007 11.0826 6.8519C11.4733 6.30374 11.6819 5.65927 11.6819 5C11.6819 4.11595 11.3073 3.2681 10.6405 2.64298C9.97366 2.01786 9.0693 1.66667 8.1263 1.66667Z" fill="black"/>
</svg>
