<svg width="39" height="28" viewBox="0 0 39 28" fill="none" xmlns="http://www.w3.org/2000/svg">
<path d="M6.37817 26.5C6.59971 26.478 6.82944 26.4564 7.06708 26.4355C10.106 26.1673 14.3253 26 19 26C23.6747 26 27.894 26.1673 30.9329 26.4355C31.1706 26.4564 31.4003 26.478 31.6218 26.5C31.4003 26.522 31.1706 26.5436 30.9329 26.5645C27.894 26.8327 23.6747 27 19 27C14.3253 27 10.106 26.8327 7.06708 26.5645C6.82944 26.5436 6.59971 26.522 6.37817 26.5Z" stroke="black" stroke-width="2"/>
<path fill-rule="evenodd" clip-rule="evenodd" d="M18.6497 17.4558C28.3349 18.2479 27.8311 12.4268 39 9.64355C31.0735 2.45019 24.895 7.34125 18.6497 1.5855V1.39963C18.6497 0.626871 18.0563 0 17.3249 0C16.5934 0 16 0.626871 16 1.39963V26.6004C16 27.3731 16.5934 28 17.3249 28C18.0563 28 18.6497 27.3731 18.6497 26.6004V17.4558Z" fill="black"/>
</svg>
